<svg xmlns="http://www.w3.org/2000/svg" x="0px" y="0px"
width="64" height="64"
viewBox="0 0 224 224"
style=" fill:#000000;"><g fill="none" fill-rule="nonzero" stroke="none" stroke-width="1" stroke-linecap="butt" stroke-linejoin="miter" stroke-miterlimit="10" stroke-dasharray="" stroke-dashoffset="0" font-family="none" font-weight="none" font-size="none" text-anchor="none" style="mix-blend-mode: normal"><path d="M0,224v-224h224v224z" fill="none"></path><g fill="#1abc9c"><path d="M135.97135,22.14844c-7.71928,-0.39111 -14.63802,5.88992 -14.63802,14.07292v0.09115c0,6.244 4.20788,11.5411 10.17188,13.39844c26.55333,8.27867 45.82812,33.00106 45.82812,62.28906c0,1.95067 -0.09611,3.86575 -0.27344,5.76042c-0.59733,6.3 2.63389,12.32962 8.47656,14.76562c8.60533,3.584 18.41715,-2.04298 19.34115,-11.32032c0.29867,-3.024 0.45573,-6.09773 0.45573,-9.20573c0,-42.04667 -27.80604,-77.59223 -66.02604,-89.26823c-1.11767,-0.34183 -2.23318,-0.52746 -3.33594,-0.58333zM87.95573,22.16667c-1.10722,0.05797 -2.233,0.25856 -3.35417,0.60156c-39.79733,12.208 -68.28106,50.28494 -65.78906,94.6276c2.716,48.272 43.80177,87.41483 92.14844,87.9375c29.372,0.31733 55.66691,-12.93468 72.98958,-33.88802c5.92667,-7.168 3.00854,-18.09048 -5.57812,-21.67448l-0.09115,-0.03646c-5.74932,-2.39867 -12.24752,-0.59486 -16.24218,4.17447c-14.07467,16.828 -36.43296,26.46948 -60.84896,22.54948c-27.524,-4.424 -49.72494,-26.92521 -53.79427,-54.50521c-4.94667,-33.49733 15.56917,-63.02085 45.0625,-72.24218c5.97333,-1.86667 10.20833,-7.154 10.20833,-13.41667v-0.07292c0,-8.21567 -6.96039,-14.46047 -14.71094,-14.05469z"></path></g></g></svg>